<?xml version="1.0" encoding="UTF-8"?>
<svg width="24px" height="24px" viewBox="0 0 24 24" version="1.1" xmlns="http://www.w3.org/2000/svg" xmlns:xlink="http://www.w3.org/1999/xlink">
    <!-- Generator: Sketch 52.4 (67378) - http://www.bohemiancoding.com/sketch -->
    <title>menu</title>
    <desc>Created with Sketch.</desc>
    <g id="menu" stroke="none" stroke-width="1" fill="none" fill-rule="evenodd">
        <g id="cartas_icon" transform="translate(5.000000, 2.000000)" fill-rule="nonzero">
            <path d="M12.6399374,-2.48689958e-14 L1.36006264,-2.48689958e-14 C0.610022601,-2.48689958e-14 5.32907052e-15,0.597539155 5.32907052e-15,1.33199572 L0.00967498917,17.2981281 C0.00967498917,17.6096294 0.230829463,17.8800881 0.541550252,17.9472045 L9.92882269,19.9842476 C10.1296721,20.0278936 10.3399059,19.9796918 10.5006021,19.8539198 C10.660883,19.7275376 10.7543526,19.536561 10.7543526,19.3352119 L10.7543526,17.7816507 L12.6399374,17.7816507 C13.3899774,17.7816507 14,17.1840709 14,16.449655 L14,1.33199572 C14,0.597539155 13.3899774,-2.48689958e-14 12.6399374,-2.48689958e-14 Z" id="Path" stroke="#000000" stroke-width="0.85"></path>
            <path d="M8.63877254,9.95645441 L2.24152852,8.37669755 C2.04603561,8.32841444 1.90909091,8.15623042 1.90909091,7.95874556 L1.90909091,5.88578501 C1.90909091,5.60503516 2.1787449,5.3992116 2.45666208,5.46783302 L8.8539061,7.04758987 C9.04939901,7.09587298 9.18634371,7.26809768 9.18634371,7.46554186 L9.18634371,9.53850241 C9.18630219,9.81925226 8.9166482,10.0250758 8.63877254,9.95645441 Z" id="Path" stroke="#000000" stroke-width="0.85"></path>
            <path d="M10.6027425,16.3276653 L10.6027425,3.24395772 C10.6027425,2.92790059 10.3758993,2.65553012 10.0599881,2.59227802 L3.18181818,1.21423639 L12.4860435,1.21212121 L12.4867494,16.3271772 L10.6027425,16.3276653 Z" id="Path" stroke="#000000" stroke-width="0.85"></path>
            <path d="M12.7272727,16.3636364 L12.7312394,16.3636364 L12.7272727,16.3636364 Z" id="Path" stroke="#979797" stroke-width="0.618181818"></path>
            <path d="M11.4545455,15.1515152 L11.4585121,15.1515152 L11.4545455,15.1515152 Z" id="Path" fill="#000000"></path>
        </g>
    </g>
</svg>