<?xml version="1.0" encoding="UTF-8"?>
<svg width="24px" height="24px" viewBox="0 0 24 24" version="1.1" xmlns="http://www.w3.org/2000/svg" xmlns:xlink="http://www.w3.org/1999/xlink">
    <!-- Generator: Sketch 52.4 (67378) - http://www.bohemiancoding.com/sketch -->
    <title>new icon copy</title>
    <desc>Created with Sketch.</desc>
    <g id="new-icon-copy" stroke="none" stroke-width="1" fill="none" fill-rule="evenodd">
        <g id="QR_icon" transform="translate(2.000000, 2.000000)" fill="#000000">
            <g id="qr-code-(2)">
                <path d="M6.1971831,0 L1.5,0 C0.671572875,1.52179594e-16 -1.01453063e-16,0.671572875 0,1.5 L0,6.1971831 L6.1971831,6.1971831 L6.1971831,0 Z M4.95774648,4.95774648 L1.23943662,4.95774648 L1.23943662,1.23943662 L4.95774648,1.23943662 L4.95774648,4.95774648 Z" id="Shape" fill-rule="nonzero"></path>
                <rect id="Rectangle" x="2.53521127" y="2.53521127" width="1.12676056" height="1.12676056"></rect>
                <path d="M13.8028169,0 L13.8028169,6.1971831 L20,6.1971831 L20,1.5 C20,0.671572875 19.3284271,-1.52179594e-16 18.5,0 L13.8028169,0 Z M18.7605634,4.95774648 L15.0422535,4.95774648 L15.0422535,1.23943662 L18.7605634,1.23943662 L18.7605634,4.95774648 Z" id="Shape" fill-rule="nonzero"></path>
                <rect id="Rectangle" x="16.3380282" y="2.53521127" width="1.12676056" height="1.12676056"></rect>
                <path d="M1.5,20 L6.1971831,20 L6.1971831,13.8028169 L0,13.8028169 L0,18.5 C1.01453063e-16,19.3284271 0.671572875,20 1.5,20 Z M1.23943662,15.0422535 L4.95774648,15.0422535 L4.95774648,18.7605634 L1.23943662,18.7605634 L1.23943662,15.0422535 Z" id="Shape" fill-rule="nonzero"></path>
                <rect id="Rectangle" x="2.53521127" y="16.3380282" width="1.12676056" height="1.12676056"></rect>
                <rect id="Rectangle" x="9.85915493" y="0" width="2.53521127" height="1.12676056"></rect>
                <polygon id="Path" points="10.1408451 5.07042254 11.4084507 5.07042254 11.4084507 3.84976526 12.6760563 3.84976526 12.6760563 2.62910798 8.87323944 2.62910798 8.87323944 1.4084507 7.6056338 1.4084507 7.6056338 2.62910798 7.6056338 3.23943662 7.6056338 3.84976526 10.1408451 3.84976526"></polygon>
                <rect id="Rectangle" x="7.6056338" y="5.07042254" width="1.12676056" height="1.12676056"></rect>
                <polygon id="Path" points="12.6760563 6.1971831 11.4084507 6.1971831 11.4084507 7.46478873 7.6056338 7.46478873 7.6056338 8.73239437 12.6760563 8.73239437"></polygon>
                <polygon id="Path" points="1.26760563 11.1267606 2.53521127 11.1267606 2.53521127 9.85915493 1.26760563 9.85915493 1.26760563 7.32394366 0 7.32394366 0 12.3943662 1.26760563 12.3943662"></polygon>
                <rect id="Rectangle" x="2.53521127" y="7.6056338" width="1.12676056" height="1.12676056"></rect>
                <polygon id="Path" points="7.38028169 12.3943662 9.85915493 12.3943662 9.85915493 11.1267606 8.61971831 11.1267606 8.61971831 9.85915493 6.14084507 9.85915493 6.14084507 7.32394366 4.90140845 7.32394366 4.90140845 9.85915493 3.66197183 9.85915493 3.66197183 12.3943662 4.90140845 12.3943662 4.90140845 11.1267606 5.52112676 11.1267606 6.14084507 11.1267606 7.38028169 11.1267606"></polygon>
                <rect id="Rectangle" x="11.2676056" y="9.85915493" width="1.12676056" height="2.53521127"></rect>
                <polygon id="Path" points="11.3239437 13.8028169 7.6056338 13.8028169 7.6056338 15.0422535 10.084507 15.0422535 10.084507 18.7605634 7.6056338 18.7605634 7.6056338 20 11.3239437 20 11.3239437 18.7605634 13.8028169 18.7605634 13.8028169 17.5211268 11.3239437 17.5211268"></polygon>
                <rect id="Rectangle" x="7.6056338" y="16.3380282" width="1.12676056" height="1.12676056"></rect>
                <rect id="Rectangle" x="12.6760563" y="13.8028169" width="1.12676056" height="2.53521127"></rect>
                <polygon id="Path" points="18.5915493 16.3380282 14.9295775 16.3380282 14.9295775 20 16.1502347 20 16.1502347 17.5586854 18.5915493 17.5586854"></polygon>
                <path d="M17.4647887,18.8732394 L20,18.8732394 L20,18.8732394 C20,19.4955321 19.4955321,20 18.8732394,20 L17.4647887,20 L17.4647887,18.8732394 Z" id="Rectangle"></path>
                <rect id="Rectangle" x="18.8732394" y="13.8028169" width="1.12676056" height="1.12676056"></rect>
                <polygon id="Path" points="15.0704225 14.9295775 16.3380282 14.9295775 16.3380282 11.2676056 13.8028169 11.2676056 13.8028169 12.4882629 15.0704225 12.4882629"></polygon>
                <polygon id="Path" points="17.5211268 8.87323944 16.2816901 8.87323944 16.2816901 7.6056338 15.0422535 7.6056338 15.0422535 8.87323944 13.8028169 8.87323944 13.8028169 10.1408451 18.7605634 10.1408451 18.7605634 8.87323944 20 8.87323944 20 7.6056338 17.5211268 7.6056338"></polygon>
                <rect id="Rectangle" x="17.4647887" y="11.2676056" width="2.53521127" height="1.12676056"></rect>
            </g>
        </g>
    </g>
</svg>