<?xml version="1.0" encoding="UTF-8"?>
<svg width="14px" height="14px" viewBox="0 0 14 14" version="1.1" xmlns="http://www.w3.org/2000/svg" xmlns:xlink="http://www.w3.org/1999/xlink">
    <!-- Generator: Sketch 51.3 (57544) - http://www.bohemiancoding.com/sketch -->
    <title>Cancel</title>
    <desc>Created with Sketch.</desc>
    <defs></defs>
    <g id="Iphone-Mockups" stroke="none" stroke-width="1" fill="none" fill-rule="evenodd">
        <g id="0502" transform="translate(-18.000000, -82.000000)" fill="#3BBEBF">
            <path d="M25.64495,88.5842899 L30.9478825,83.2813574 C31.2356892,82.9935507 31.2411441,82.513222 30.9482509,82.2203288 C30.6533157,81.9253936 30.180319,81.9276005 29.8872223,82.2206972 L24.5842899,87.5236297 L19.2813574,82.2206972 C18.9935507,81.9328905 18.513222,81.9274356 18.2203288,82.2203288 C17.9253936,82.515264 17.9276005,82.9882607 18.2206972,83.2813574 L23.5236297,88.5842899 L18.2206972,93.8872223 C17.9328905,94.175029 17.9274356,94.6553577 18.2203288,94.9482509 C18.515264,95.2431861 18.9882607,95.2409792 19.2813574,94.9478825 L24.5842899,89.64495 L29.8872223,94.9478825 C30.175029,95.2356892 30.6553577,95.2411441 30.9482509,94.9482509 C31.2431861,94.6533157 31.2409792,94.180319 30.9478825,93.8872223 L25.64495,88.5842899 L25.64495,88.5842899 Z" id="Cancel"></path>
        </g>
    </g>
</svg>