<?xml version="1.0" encoding="UTF-8"?>
<svg width="12px" height="23px" viewBox="0 0 12 23" version="1.1" xmlns="http://www.w3.org/2000/svg" xmlns:xlink="http://www.w3.org/1999/xlink">
    <!-- Generator: Sketch 52.2 (67145) - http://www.bohemiancoding.com/sketch -->
    <title>Arrow-down - simple-line-icons Copy 4</title>
    <desc>Created with Sketch.</desc>
    <g id="Symbols" stroke="none" stroke-width="1" fill="none" fill-rule="evenodd">
        <g id="icon/arrow/left/active" transform="translate(-5.000000, -1.000000)" fill="#000000">
            <path d="M0.171875,7.28320312 C0.171875,7.1972652 0.189778467,7.10774786 0.225585938,7.01464844 C0.261393408,6.92154901 0.315103809,6.83919307 0.38671875,6.76757812 C0.529948633,6.63867123 0.701821914,6.57421875 0.90234375,6.57421875 C1.10286559,6.57421875 1.27473887,6.63867123 1.41796875,6.76757812 L11.1289063,16.4785156 L20.6894531,6.91796875 C20.832683,6.77473887 21.0045563,6.703125 21.2050781,6.703125 C21.4056,6.703125 21.5774732,6.77473887 21.7207031,6.91796875 C21.863933,7.06119863 21.9355469,7.23307191 21.9355469,7.43359375 C21.9355469,7.63411559 21.863933,7.80598887 21.7207031,7.94921875 L11.6445313,18.0253906 C11.5013014,18.1686205 11.3294281,18.2402344 11.1289063,18.2402344 C10.9283844,18.2402344 10.7565111,18.1686205 10.6132812,18.0253906 L0.38671875,7.8203125 C0.315103809,7.74869756 0.261393408,7.66634161 0.225585938,7.57324219 C0.189778467,7.48014276 0.171875,7.38346404 0.171875,7.28320312 Z" id="Arrow-down---simple-line-icons-Copy-4" transform="translate(11.053711, 12.407227) rotate(90.000000) translate(-11.053711, -12.407227) "></path>
        </g>
    </g>
</svg>