<?xml version="1.0" encoding="UTF-8"?>
<svg width="18px" height="23px" viewBox="0 0 18 23" version="1.1" xmlns="http://www.w3.org/2000/svg" xmlns:xlink="http://www.w3.org/1999/xlink">
    <!-- Generator: Sketch 52.2 (67145) - http://www.bohemiancoding.com/sketch -->
    <title>Trash - simple-line-icons Copy</title>
    <desc>Created with Sketch.</desc>
    <g id="Symbols" stroke="none" stroke-width="1" fill="none" fill-rule="evenodd">
        <g id="icon/trash" transform="translate(-3.000000, -1.000000)" fill="#373737">
            <path d="M20.2714844,4.79101562 C20.4576832,4.79101562 20.6188144,4.8590488 20.7548828,4.99511719 C20.8909512,5.13118558 20.9589844,5.29231678 20.9589844,5.47851562 C20.9589844,5.66471447 20.8909512,5.82584567 20.7548828,5.96191406 C20.6188144,6.09798245 20.4576832,6.16601562 20.2714844,6.16601562 L19.3261719,6.16601562 L17.7148438,22.0644531 C17.6861978,22.4368508 17.532228,22.7519518 17.2529297,23.0097656 C16.9736314,23.2675794 16.6477883,23.3964844 16.2753906,23.3964844 L7.72460938,23.3964844 C7.35221168,23.3964844 7.02636858,23.2675794 6.74707031,23.0097656 C6.46777204,22.7519518 6.30664084,22.4368508 6.26367188,22.0644531 L4.67382812,6.16601562 L3.72851562,6.16601562 C3.54231678,6.16601562 3.38118558,6.09798245 3.24511719,5.96191406 C3.1090488,5.82584567 3.04101562,5.66471447 3.04101562,5.47851562 C3.04101562,5.29231678 3.1090488,5.13118558 3.24511719,4.99511719 C3.38118558,4.8590488 3.54231678,4.79101562 3.72851562,4.79101562 L8.5625,4.79101562 L8.5625,2.921875 C8.5625,2.47786236 8.72005051,2.10547025 9.03515625,1.8046875 C9.35026199,1.50390475 9.7226541,1.35351562 10.1523438,1.35351562 L13.8476562,1.35351562 C14.2773459,1.35351562 14.649738,1.50390475 14.9648438,1.8046875 C15.2799495,2.10547025 15.4375,2.47786236 15.4375,2.921875 L15.4375,4.79101562 L20.2714844,4.79101562 Z M9.9375,2.921875 L9.9375,4.79101562 L14.0625,4.79101562 L14.0625,2.921875 C14.0625,2.86458305 14.0410158,2.81445334 13.9980469,2.77148438 C13.9550779,2.72851541 13.9049482,2.70703125 13.8476562,2.70703125 L10.1523438,2.70703125 C10.0950518,2.70703125 10.0449221,2.72851541 10.0019531,2.77148438 C9.95898416,2.81445334 9.9375,2.86458305 9.9375,2.921875 Z M16.3613281,21.9355469 L17.9296875,6.16601562 L6.0703125,6.16601562 L7.63867188,21.9355469 C7.63867188,21.9498699 7.64941396,21.9677733 7.67089844,21.9892578 C7.69238292,22.0107423 7.71028639,22.0214844 7.72460938,22.0214844 L16.2753906,22.0214844 C16.2897136,22.0214844 16.3076171,22.014323 16.3291016,22 C16.350586,21.985677 16.3613281,21.9641929 16.3613281,21.9355469 Z" id="Trash---simple-line-icons-Copy"></path>
        </g>
    </g>
</svg>