<?xml version="1.0" encoding="UTF-8"?>
<svg width="23px" height="23px" viewBox="0 0 23 23" version="1.1" xmlns="http://www.w3.org/2000/svg" xmlns:xlink="http://www.w3.org/1999/xlink">
    <!-- Generator: Sketch 52.2 (67145) - http://www.bohemiancoding.com/sketch -->
    <title>pencil - simple-line-icons copy</title>
    <desc>Created with Sketch.</desc>
    <g id="Symbols" stroke="none" stroke-width="1" fill="none" fill-rule="evenodd">
        <g id="icon/edit" transform="translate(-1.000000, 0.000000)" fill="#373737">
            <path d="M21.732422,1.09570312 C22.1621116,1.4967468 22.484374,1.91568792 22.6992189,2.35253906 C22.9140637,2.78939021 23.0286459,3.22981549 23.0429689,3.67382812 C23.0572918,4.14648674 22.9570324,4.60839618 22.7421876,5.05957031 C22.5273428,5.51074444 22.2122418,5.95116973 21.7968751,6.38085938 C21.5963533,6.5957042 20.794278,7.39777951 19.3906251,8.78710938 C17.9869723,10.1764392 16.472339,11.6767498 14.8466798,13.2880859 C13.2210206,14.8994221 11.7278715,16.3782485 10.3671876,17.7246094 C9.00650372,19.0709703 8.2617195,19.8085931 8.13281261,19.9375 C8.08984364,19.980469 8.04329463,20.0162759 7.99316417,20.0449219 C7.94303371,20.0735679 7.88932331,20.095052 7.83203136,20.109375 C7.63150952,20.166667 7.20898771,20.2991526 6.56445323,20.5068359 C5.91991876,20.7145193 5.25749049,20.9257802 4.57714854,21.140625 C3.8968066,21.3554698 3.28450804,21.552408 2.74023448,21.7314453 C2.19596093,21.9104827 1.91666685,22 1.90234386,22 C1.87369788,22.014323 1.84147164,22.0250651 1.80566417,22.0322266 C1.7698567,22.0393881 1.73046907,22.0429688 1.68750011,22.0429688 C1.60156218,22.0429688 1.51562554,22.0250653 1.42968761,21.9892578 C1.34374968,21.9534503 1.27213581,21.8997399 1.21484386,21.828125 C1.11458294,21.7421871 1.05013046,21.6347663 1.02148448,21.5058594 C0.992838506,21.3769525 0.992838506,21.2480475 1.02148448,21.1191406 C1.03580747,21.1048176 1.12174411,20.8362656 1.27929698,20.3134766 C1.43684985,19.7906875 1.61946521,19.1855503 1.82714854,18.4980469 C2.03483188,17.8105434 2.2353507,17.1409538 2.42871104,16.4892578 C2.62207139,15.8375618 2.75455704,15.368491 2.82617198,15.0820312 C2.85481796,15.0247393 2.88346351,14.9710289 2.91210948,14.9208984 C2.94075546,14.870768 2.97656239,14.824219 3.01953136,14.78125 L9.67968761,8.12109375 C11.3554772,6.44530412 12.9059175,4.8912832 14.3310548,3.45898438 C15.7561921,2.02668555 16.5188798,1.26757855 16.6191407,1.18164062 C16.7623706,1.03841074 17.0703102,0.805665674 17.5429689,0.483398438 C18.0156275,0.161131201 18.5956998,0 19.2832032,0 C19.7272159,0 20.1533184,0.0930980273 20.5615235,0.279296875 C20.9697287,0.465495723 21.3600243,0.737628418 21.732422,1.09570312 Z M16.404297,3.37304688 C15.7311165,4.03190434 14.8717501,4.88410936 13.826172,5.9296875 C12.7805938,6.97526564 11.7028051,8.05663504 10.5927735,9.17382812 C9.48274195,10.2910212 8.41927603,11.3580678 7.40234386,12.375 L4.97460948,14.8027344 C5.26106925,14.9173183 5.57975096,15.0820302 5.93066417,15.296875 C6.28157738,15.5117198 6.63606603,15.7981753 6.99414073,16.15625 C7.2806005,16.4570328 7.52050695,16.7613917 7.71386729,17.0693359 C7.90722764,17.3772802 8.06119745,17.660155 8.17578136,17.9179688 C8.77734687,17.3164032 9.58300287,16.5179086 10.5927735,15.5224609 C11.6025442,14.5270133 12.6588488,13.4814508 13.7617189,12.3857422 C14.864589,11.2900336 15.9352163,10.2265677 16.9736329,9.1953125 C18.0120496,8.16405734 18.8678353,7.31901371 19.5410157,6.66015625 C19.5266927,6.54557234 19.4443368,6.27702034 19.2939454,5.85449219 C19.143554,5.43196403 18.8535179,5.00586152 18.4238282,4.57617188 C17.9941386,4.16080521 17.5931009,3.86718836 17.2207032,3.6953125 C16.8483055,3.52343664 16.5761728,3.41601584 16.404297,3.37304688 Z M4.02929698,15.9628906 C3.87174411,16.4928412 3.65332182,17.1946571 3.37402354,18.0683594 C3.09472527,18.9420617 2.85481882,19.7011687 2.65429698,20.3457031 C3.32747743,20.1308583 4.10806858,19.8730484 4.99609386,19.5722656 C5.88411913,19.2714829 6.56445087,19.0423185 7.03710948,18.8847656 C6.96549454,18.6699208 6.85091235,18.4049495 6.69335948,18.0898438 C6.53580661,17.774738 6.30664224,17.4667984 6.00585948,17.1660156 C5.60481581,16.764972 5.22526231,16.4749358 4.86718761,16.2958984 C4.5091129,16.1168611 4.22981882,16.0058596 4.02929698,15.9628906 Z M20.7871095,5.39257812 C21.0735692,5.10611836 21.2884108,4.81966289 21.4316407,4.53320312 C21.5748706,4.24674336 21.6464845,3.97461066 21.6464845,3.71679688 C21.6464845,3.45898309 21.5712899,3.19401178 21.4208985,2.921875 C21.2705072,2.64973822 21.0520849,2.37760553 20.7656251,2.10546875 C20.5364573,1.87630094 20.2965508,1.70442766 20.0458985,1.58984375 C19.7952463,1.47525984 19.541017,1.41796875 19.2832032,1.41796875 C18.8391906,1.41796875 18.4560564,1.53255094 18.1337892,1.76171875 C17.8115219,1.99088656 17.636068,2.12695291 17.607422,2.16992188 L17.5000001,2.27734375 C17.7721369,2.39192766 18.0729151,2.55305886 18.4023439,2.76074219 C18.7317726,2.96842552 19.0683578,3.24413891 19.4121095,3.58789062 C19.7415382,3.91731936 20.0065095,4.25390453 20.2070314,4.59765625 C20.4075532,4.94140797 20.5579423,5.25650898 20.6582032,5.54296875 C20.6868492,5.51432277 20.7119141,5.48567723 20.7333985,5.45703125 C20.754883,5.42838527 20.7727865,5.40690111 20.7871095,5.39257812 Z" id="pencil---simple-line-icons-copy"></path>
        </g>
    </g>
</svg>