<?xml version="1.0" encoding="UTF-8"?>
<svg width="22px" height="20px" viewBox="0 0 22 20" version="1.1" xmlns="http://www.w3.org/2000/svg" xmlns:xlink="http://www.w3.org/1999/xlink">
    <!-- Generator: Sketch 52.4 (67378) - http://www.bohemiancoding.com/sketch -->
    <title>Path</title>
    <desc>Created with Sketch.</desc>
    <g id="Desktop-Dashboard" stroke="none" stroke-width="1" fill="none" fill-rule="evenodd" opacity="0.400000006">
        <g id="0110" transform="translate(-134.000000, -569.000000)" fill="#000000">
            <g id="Alérgenos" transform="translate(104.000000, 530.000000)">
                <g id="Almendra" transform="translate(10.000000, 29.000000)">
                    <path d="M40.075241,11.2697423 C40.0623598,11.2562371 40.0496382,11.2435567 40.0369699,11.2316495 L40.036757,11.2312887 C40.0363312,11.2310825 40.0361715,11.2306701 40.0359586,11.2304639 C40.0295179,11.2242268 40.0230241,11.2179897 40.0163706,11.2117526 C39.2011269,10.4190206 37.907042,10 36.269635,10 C34.4538602,10 32.2589939,10.5194845 30.0899433,11.4628351 C27.7730779,12.4702062 25.5994496,13.8971649 23.804008,15.5891237 C21.7984213,17.4790722 20.7105426,19.7036082 20.6577402,22.0221649 C20.6093025,24.144433 21.4409937,26.1674227 22.9995697,27.7182474 L23.0118654,27.7301546 C24.5647992,29.1937629 26.5901868,29.9997938 28.7147386,30 L28.7155903,30 C31.1736702,30 33.5323198,28.9457216 35.5366822,26.9510825 C37.9750145,24.5247938 39.8868663,21.3537113 40.7823781,18.2512371 C41.6833192,15.1296392 41.4246832,12.5911856 40.075241,11.2697423 Z M23.9104645,26.8477835 C23.7761697,26.6651546 23.7187896,26.0294845 24.3916477,24.7676289 C24.9099843,23.7953093 26.0105313,22.1731959 28.3088733,19.9675773 C30.5471739,17.8195361 33.0174963,15.7892784 35.2649521,14.250567 C37.4086128,12.7828866 38.5661141,12.3058763 39.0387276,12.1975773 C38.926895,12.6552577 38.4345339,13.7765464 36.9189663,15.8523196 C35.3300502,18.0287629 33.2335497,20.4210309 31.0154226,22.5886082 C28.7378397,24.8143299 27.0628003,25.8801031 26.0587561,26.3820619 C24.7554627,27.033866 24.0990521,26.9780928 23.9104645,26.8477835 Z M21.9347921,22.0495876 C21.9801425,20.0620103 22.9344716,18.1346392 24.6947826,16.4759278 C27.9678932,13.3913918 32.7276685,11.2371134 36.269635,11.2371134 C36.7934009,11.2371134 37.2661741,11.2854124 37.6814075,11.3798454 C36.6293515,11.8556701 35.4013228,12.6362887 34.3901993,13.3347938 C32.1240603,14.9001031 29.6450085,16.9436598 27.4096355,19.088866 C25.4967192,20.9245876 24.0606213,22.6920619 23.2565556,24.2 C23.031826,24.6212371 22.8696396,24.9979897 22.7569554,25.3356701 C22.1944926,24.3312887 21.9083909,23.2075258 21.9347921,22.0495876 Z M39.5521139,17.9181959 C38.7122788,20.827732 36.9150274,23.805567 34.6209969,26.088299 C32.862815,27.8380412 30.8210331,28.7628866 28.7155903,28.7628866 L28.7149515,28.7628866 C27.5742704,28.7626804 26.4669102,28.4856186 25.4736713,27.9646907 C25.8219437,27.855567 26.2105098,27.6985052 26.6449054,27.4812887 C28.201991,26.7026289 30.027134,25.3119072 31.9225915,23.459433 C34.137791,21.2946907 36.2480244,18.8939691 37.8646191,16.6992268 C38.5844246,15.722268 39.3887032,14.5364948 39.8802127,13.5192268 C40.1519429,14.6508247 40.048414,16.1982474 39.5521139,17.9181959 Z" id="almond"></path>
                </g>
            </g>
        </g>
    </g>
</svg>