<?xml version="1.0" encoding="UTF-8"?>
<svg width="22px" height="20px" viewBox="0 0 22 20" version="1.1" xmlns="http://www.w3.org/2000/svg" xmlns:xlink="http://www.w3.org/1999/xlink">
    <!-- Generator: Sketch 52.4 (67378) - http://www.bohemiancoding.com/sketch -->
    <title>celery</title>
    <desc>Created with Sketch.</desc>
    <g id="Desktop-Dashboard" stroke="none" stroke-width="1" fill="none" fill-rule="evenodd">
        <g id="0110" transform="translate(-214.000000, -569.000000)" fill="#32BBBC">
            <g id="Alérgenos" transform="translate(104.000000, 530.000000)">
                <g id="Apio" transform="translate(90.000000, 29.000000)">
                    <path d="M41.1185831,16.3727414 C40.918274,16.0489106 40.67696,15.7433412 40.4011044,15.4642404 C40.2574815,15.3189705 40.1045345,15.1814976 39.9439587,15.0534631 C40.2382505,13.9790713 40.2456674,12.8471255 39.962395,11.7534977 L39.8696838,11.3960169 L39.5004813,11.3062491 C38.953962,11.173598 38.3914434,11.1062978 37.8289778,11.1062978 C37.2389637,11.1062978 36.6568433,11.1794457 36.0923116,11.3243053 C35.9600789,11.1686223 35.8180984,11.0205312 35.6680651,10.8814681 C35.3798128,10.6145757 35.0642238,10.3807179 34.7295629,10.1867682 L34.4075637,10 L34.0830744,10.1831775 C33.7105873,10.3931315 33.3581788,10.6582285 33.03512,10.9710307 C32.6590834,11.3351287 32.3536662,11.7420588 32.1185506,12.1756627 L22.0918607,21.8840201 C20.17703,23.7383142 20.17703,26.7551264 22.0918607,28.6094205 C23.049435,29.5365419 24.3072346,30 25.5648223,30 C26.82241,30 28.0802626,29.5363367 29.0377839,28.6094205 L39.0602885,18.904859 C39.5147323,18.6736173 39.9354823,18.3748702 40.3086051,18.0133882 C40.631452,17.7007912 40.9052414,17.3595712 41.1222916,16.99891 L41.3114754,16.6847228 L41.1185831,16.3727414 Z M23.1059093,27.6275664 C23.0761358,26.9713384 23.3283632,26.3311148 23.8184081,25.8566281 L32.5198047,17.431488 C32.6735993,17.6350812 32.8453534,17.8298516 33.03512,18.0135934 C33.223827,18.1961554 33.4247719,18.3628669 33.6358886,18.5129073 L24.9348629,26.9376884 C24.444818,27.4121751 23.7836547,27.6563947 23.1059093,27.6275664 Z M22.9910534,22.7544595 L31.5312384,14.4854127 C31.5304437,15.1041434 31.6477366,15.7229254 31.8830641,16.3070314 L22.9192684,24.9862399 C22.5421722,25.3511073 22.2580521,25.7807102 22.0746959,26.2451942 C21.711321,25.0471281 22.0167381,23.6978417 22.9910534,22.7544595 Z M28.1385912,27.7387758 C27.164117,28.6823119 25.7698995,28.9778787 24.5326023,28.62563 C25.0124754,28.448095 25.4565886,28.1734057 25.8338437,27.8082817 L34.7952024,19.1312789 C35.3853754,19.3548776 36.0192552,19.4721399 36.671942,19.4721399 C36.6734254,19.4721399 36.6750677,19.4721399 36.6764981,19.4721399 L28.1385912,27.7387758 Z M39.4096243,17.1429487 C38.6782654,17.8510881 37.7060692,18.2410393 36.671942,18.2410393 C35.6376559,18.2410393 34.6654067,17.8510881 33.9343127,17.1429487 C32.4246035,15.6814271 32.4246035,13.303197 33.9343127,11.8414701 C34.0826506,11.6977904 34.2385114,11.5677554 34.3999348,11.4527501 C34.5352402,11.5499045 34.6651948,11.6562921 34.788951,11.7709383 C34.9893132,11.9564755 35.1699676,12.1628387 35.3264111,12.3846933 L35.5987172,12.7710024 L36.0562867,12.6201413 C36.6255864,12.4325524 37.2220108,12.3373985 37.8289778,12.3373985 C38.1578112,12.3373985 38.4866446,12.3656626 38.81071,12.4215237 C38.9762657,13.3168417 38.9067588,14.2313443 38.6054209,15.0883443 L38.4496131,15.5313354 L38.8485891,15.7950474 C39.0775063,15.9465241 39.290848,16.121443 39.4824688,16.3154439 C39.6008213,16.435271 39.7107503,16.5610998 39.8110903,16.6921094 C39.692314,16.8484079 39.5580152,16.9991151 39.4096243,17.1429487 Z" id="celery"></path>
                </g>
            </g>
        </g>
    </g>
</svg>