<?xml version="1.0" encoding="UTF-8"?>
<svg width="21px" height="20px" viewBox="0 0 21 20" version="1.1" xmlns="http://www.w3.org/2000/svg" xmlns:xlink="http://www.w3.org/1999/xlink">
    <!-- Generator: Sketch 52.4 (67378) - http://www.bohemiancoding.com/sketch -->
    <title>crustaceans</title>
    <desc>Created with Sketch.</desc>
    <defs>
        <polygon id="path-1" points="0.00324488761 0.012565445 20.9836066 0.012565445 20.9836066 19.9477487 0.00324488761 19.9477487"></polygon>
    </defs>
    <g id="Desktop-Dashboard" stroke="none" stroke-width="1" fill="none" fill-rule="evenodd">
        <g id="0110" transform="translate(-135.000000, -729.000000)">
            <g id="Alérgenos" transform="translate(104.000000, 530.000000)">
                <g id="Crustáceo" transform="translate(10.000000, 189.000000)">
                    <g id="Group">
                        <g id="crustaceans" transform="translate(20.983607, 10.000000)">
                            <mask id="mask-2" fill="white">
                                <use xlink:href="#path-1"></use>
                            </mask>
                            <g id="Clip-2"></g>
                            <path d="M19.1955653,9.42905759 L19.1955653,8.27560209 C19.4986919,8.12633508 19.7792124,7.93057592 20.0266351,7.69109948 C20.6437046,7.09371728 20.9836066,6.29937173 20.9836066,5.45450262 C20.9836066,4.60968586 20.6437046,3.81534031 20.0266351,3.21795812 L17.6725773,0.939005236 C17.0555079,0.341623037 16.2349839,0.012565445 15.3623255,0.012565445 C14.489613,0.012565445 13.6690891,0.341623037 13.0520196,0.939005236 C11.7781308,2.17225131 11.7781308,4.17895288 13.0520196,5.41219895 L15.4060233,7.69109948 C16.0230928,8.28848168 16.8434004,8.61753927 17.7163292,8.61753927 C17.7769545,8.61753927 17.8373635,8.61549738 17.8976103,8.61246073 L17.8976103,8.63942408 L15.3126787,9.84465969 C14.3011932,8.29832461 12.5183978,7.26937173 10.4918033,7.26937173 C8.46520872,7.26937173 6.68241339,8.29832461 5.67092784,9.84465969 L3.08599628,8.63942408 L3.08599628,8.61246073 C3.14624303,8.61549738 3.20643569,8.61753927 3.26727734,8.61753927 L3.26749366,8.61753927 C4.14020619,8.61753927 4.96051377,8.28848168 5.57758323,7.69109948 L7.93158695,5.41219895 C9.20547575,4.17895288 9.20547575,2.17225131 7.93158695,0.939005236 C7.31451749,0.341623037 6.49399358,0.012565445 5.62128105,0.012565445 C4.74862261,0.012565445 3.9280987,0.341623037 3.31102924,0.939005236 L0.956971438,3.21795812 C0.339901977,3.81534031 0,4.60968586 0,5.45450262 C0,6.29937173 0.339901977,7.09371728 0.956971438,7.69109948 C1.20439412,7.93057592 1.48491465,8.12612565 1.78804124,8.27560209 L1.78804124,9.42905759 L5.10604698,10.9760209 C4.96981579,11.3541885 4.87517323,11.7509424 4.82677032,12.1612042 L1.55165117,12.1612042 L1.55165117,13.4177487 L4.8274193,13.4177487 C4.87517323,13.8223037 4.96873416,14.2200524 5.10604698,14.6031414 L2.1548217,15.9791099 L2.71802603,17.1113089 L5.67325334,15.7335079 L6.36387358,16.7918325 L4.40974818,19.163822 L5.42464087,19.9473298 L7.47108332,17.463089 L13.5125232,17.463089 L15.559182,19.9477487 L16.5740747,19.1642408 L14.619733,16.7920419 L15.3105695,15.7340838 L18.2653642,17.1117277 L18.8285685,15.9795288 L15.8773432,14.6037173 C16.0148724,14.2202618 16.1084333,13.8225131 16.1561873,13.4177487 L19.4319554,13.4177487 L19.4319554,12.1612042 L16.1568362,12.1612042 C16.1084333,11.7509424 16.0137908,11.3541885 15.8775596,10.9760209 L19.1955653,9.42905759 Z M13.9697279,4.52376963 C13.3627717,3.93596859 13.2360047,3.05717277 13.5890485,2.34732984 L16.7984046,5.45450262 L15.8649045,6.35827225 L13.9697279,4.52376963 Z M16.8598952,7.17204188 L18.6340375,5.45450262 L14.5058915,1.45806283 C14.7697549,1.33455497 15.060605,1.26910995 15.3623255,1.26910995 C15.8883218,1.26910995 16.3828967,1.46748691 16.7549231,1.82743455 L19.1089268,4.10633508 C19.4807369,4.46649215 19.6856515,4.94528796 19.6856515,5.45450262 C19.6856515,5.96376963 19.4809532,6.44251309 19.1089268,6.80267016 C18.7369005,7.1626178 18.2423255,7.36099476 17.7163292,7.36099476 C17.4146628,7.36099476 17.1235423,7.29554974 16.8598952,7.17204188 Z M7.01387865,4.52376963 L5.11870204,6.35827225 L4.18520196,5.45450262 L7.39455805,2.34732984 C7.74760183,3.05696335 7.62083488,3.93596859 7.01387865,4.52376963 Z M1.87467974,4.10633508 L4.22868345,1.82743455 C4.60070982,1.46748691 5.09528477,1.26910995 5.62128105,1.26910995 C5.92300152,1.26910995 6.21385161,1.33455497 6.47771506,1.45806283 L2.34956904,5.45450262 L4.12371134,7.17204188 C3.86006422,7.29554974 3.56916005,7.36099476 3.26749366,7.36099476 L3.26727734,7.36099476 C2.74128105,7.36099476 2.2467061,7.1626178 1.87467974,6.80267016 C1.5028697,6.44251309 1.29795504,5.96376963 1.29795504,5.45450262 C1.29795504,4.94528796 1.5028697,4.46649215 1.87467974,4.10633508 Z M10.4918033,8.52591623 C12.920169,8.52591623 14.8960892,10.4385864 14.8960892,12.7894764 C14.8960892,13.5316754 14.6964205,14.2615707 14.3187156,14.9015183 L13.4664999,16.2065445 L7.51710664,16.2065445 L6.66510732,14.9015183 C6.2874024,14.2615707 6.08773365,13.5316754 6.08773365,12.7894764 C6.08773365,10.4385864 8.06343755,8.52591623 10.4918033,8.52591623 Z" id="Fill-1" fill="#32BBBC" mask="url(#mask-2)"></path>
                        </g>
                    </g>
                </g>
            </g>
        </g>
    </g>
</svg>