<?xml version="1.0" encoding="UTF-8"?>
<svg width="22px" height="25px" viewBox="0 0 22 25" version="1.1" xmlns="http://www.w3.org/2000/svg" xmlns:xlink="http://www.w3.org/1999/xlink">
    <!-- Generator: Sketch 52.4 (67378) - http://www.bohemiancoding.com/sketch -->
    <title>egg</title>
    <desc>Created with Sketch.</desc>
    <defs>
        <polygon id="path-1" points="0.0041728763 0.00257731959 20.6541381 0.00257731959 20.6541381 25 0.0041728763 25"></polygon>
    </defs>
    <g id="Desktop-Dashboard" stroke="none" stroke-width="1" fill="none" fill-rule="evenodd">
        <g id="0110" transform="translate(-454.000000, -566.000000)">
            <g id="Alérgenos" transform="translate(104.000000, 530.000000)">
                <g id="Huevo" transform="translate(330.000000, 29.000000)">
                    <g id="Group">
                        <g id="egg" transform="translate(20.655738, 7.000000)">
                            <g id="Group-3">
                                <mask id="mask-2" fill="white">
                                    <use xlink:href="#path-1"></use>
                                </mask>
                                <g id="Clip-2"></g>
                                <path d="M10.3262692,0 C4.82544461,0 0,6.54626289 0,14.0091495 C0,16.8603093 1.0744461,19.5876289 3.02561351,21.6887242 C3.97835072,22.7151418 5.08186786,23.5248067 6.3052161,24.0959407 C7.59080974,24.695683 8.94344759,25 10.3257129,25 C11.7077,25 13.060616,24.695683 14.3464183,24.0959407 C15.5700447,23.5250644 16.67384,22.7153995 17.6268554,21.6892397 C19.5791356,19.5878866 20.6541381,16.8603093 20.6541381,14.0091495 C20.6541381,6.54626289 15.8281371,0 10.3262692,0 Z M10.3257129,23.4536082 C5.63338301,23.4536082 1.66915052,19.1285438 1.66915052,14.0091495 C1.66915052,7.48653351 5.7955688,1.54639175 10.3262692,1.54639175 C14.8580129,1.54639175 18.9849876,7.48653351 18.9849876,14.0091495 C18.9849876,19.1285438 15.0193641,23.4536082 10.3257129,23.4536082 Z" id="Fill-1" fill="#32BBBC" mask="url(#mask-2)"></path>
                            </g>
                            <path d="M7.24355688,18.327384 C6.17592648,17.1777062 5.56383507,15.603866 5.56383507,14.0091495 L3.89468455,14.0091495 C3.89468455,15.968299 4.65400894,17.9098582 5.97813214,19.3359536 C7.2090611,20.6615979 8.75295579,21.3917526 10.3257129,21.3917526 L10.3257129,19.8453608 C9.24688525,19.8453608 8.15233979,19.30625 7.24355688,18.327384 Z" id="Fill-4" fill="#32BBBC"></path>
                        </g>
                    </g>
                </g>
            </g>
        </g>
    </g>
</svg>