<?xml version="1.0" encoding="UTF-8"?>
<svg width="21px" height="20px" viewBox="0 0 21 20" version="1.1" xmlns="http://www.w3.org/2000/svg" xmlns:xlink="http://www.w3.org/1999/xlink">
    <!-- Generator: Sketch 52.4 (67378) - http://www.bohemiancoding.com/sketch -->
    <title>fish</title>
    <desc>Created with Sketch.</desc>
    <defs>
        <polygon id="path-1" points="0.00320360405 0.00134020619 20.9819752 0.00134020619 20.9819752 19.9999485 0.00320360405 19.9999485"></polygon>
    </defs>
    <g id="Desktop-Dashboard" stroke="none" stroke-width="1" fill="none" fill-rule="evenodd">
        <g id="0110" transform="translate(-215.000000, -730.000000)">
            <g id="Alérgenos" transform="translate(104.000000, 530.000000)">
                <g id="Pescado" transform="translate(90.000000, 189.000000)">
                    <g id="Group">
                        <g id="fish" transform="translate(20.983607, 11.000000)">
                            <mask id="mask-2" fill="white">
                                <use xlink:href="#path-1"></use>
                            </mask>
                            <g id="Clip-2"></g>
                            <path d="M20.9810971,0.61871134 L20.9746365,0.0232989691 L20.3581029,0.00701030928 C20.2169307,0.00319587629 20.0738364,0.00134020619 19.9328244,0.00134020619 C16.5830292,0.00134020619 13.3817211,1.03128866 10.7216619,2.93469072 C10.0963718,2.46953608 9.33444792,2.21664948 8.53189171,2.21664948 C7.57123764,2.21664948 6.66792809,2.5778866 5.98839027,3.23386598 L5.53540066,3.67123711 L7.70952655,5.76994845 C6.8247445,6.86345361 6.10622951,8.06252577 5.565034,9.35257732 C4.94513661,10.8307216 4.58078004,12.3694845 4.47671631,13.9410309 C4.01742627,13.7406701 3.51563509,13.6343814 2.99670463,13.6343814 C2.03583698,13.6343814 1.13252743,13.9958247 0.453203187,14.6515979 L0,15.0889691 L5.08694948,19.9999485 L5.54020607,19.5626289 C6.62184958,18.5181959 6.86836691,16.9689691 6.28125308,15.6936082 C7.98439578,15.6102577 9.65128436,15.2546392 11.2464122,14.6324742 C12.5355425,14.1296907 13.7386026,13.4670619 14.8410695,12.6547938 L17.1855738,14.9181959 L17.6386168,14.4808763 C18.3178876,13.8250515 18.6920686,12.9529897 18.6920686,12.0253608 C18.6920686,11.1893299 18.3871389,10.3988144 17.8298719,9.77082474 C18.6578434,8.72298969 19.335726,7.57948454 19.8523072,6.35185567 C20.6229875,4.52072165 21.0027748,2.59195876 20.9810971,0.61871134 Z M7.41084387,3.73221649 C7.74994536,3.55041237 8.13330997,3.45376289 8.53189171,3.45376289 C8.94152588,3.45376289 9.33444792,3.55623711 9.68049055,3.74773196 C9.47567347,3.92231959 9.27459392,4.10190722 9.07794602,4.28757732 C8.89395236,4.46273196 8.71524465,4.64154639 8.54128895,4.82376289 L7.41084387,3.73221649 Z M5.02314437,18.1889691 L1.87544321,15.1499485 C2.21459809,14.9681443 2.59790931,14.8714948 2.99649105,14.8714948 C3.615107,14.8714948 4.19661452,15.1040722 4.63395987,15.5262887 C5.37981229,16.2463402 5.50955825,17.3392784 5.02314437,18.1889691 Z M5.7324757,14.4742268 C5.84054395,10.9692784 7.33385058,7.68458763 9.97580945,5.17010309 C10.7569015,4.43252577 11.6103416,3.79221649 12.5195245,3.25360825 C12.9278772,4.38685567 13.5978042,5.42036082 14.4856831,6.27752577 C15.3335169,7.09603093 16.3521562,7.72484536 17.4663163,8.12293814 C16.8946331,8.97809278 16.2194736,9.78025773 15.4446819,10.515 C12.8102515,13.0158247 9.36910024,14.4166495 5.7324757,14.4742268 Z M17.410627,12.0253608 C17.410627,12.4101546 17.3105143,12.7802577 17.1224094,13.1078351 L15.8313569,11.8614433 C16.0046719,11.7106701 16.1754774,11.5561856 16.3429725,11.3973196 C16.5671714,11.1846907 16.7828273,10.9662371 16.9918091,10.7433505 C17.2635815,11.1164433 17.410627,11.5598454 17.410627,12.0253608 Z M18.1220406,7.03443299 C17.0983823,6.70438144 16.1619155,6.14623711 15.3918759,5.40283505 C14.5888925,4.62762887 13.9965995,3.68190722 13.6608084,2.64551546 C15.5224761,1.75917526 17.5728895,1.2743299 19.6927677,1.24046392 C19.6222884,3.28685567 19.0826947,5.25427835 18.1220406,7.03443299 Z" id="Fill-1" fill="#32BBBC" mask="url(#mask-2)"></path>
                        </g>
                    </g>
                </g>
            </g>
        </g>
    </g>
</svg>