<?xml version="1.0" encoding="UTF-8"?>
<svg width="21px" height="20px" viewBox="0 0 21 20" version="1.1" xmlns="http://www.w3.org/2000/svg" xmlns:xlink="http://www.w3.org/1999/xlink">
    <!-- Generator: Sketch 52.4 (67378) - http://www.bohemiancoding.com/sketch -->
    <title>gluten</title>
    <desc>Created with Sketch.</desc>
    <defs>
        <polygon id="path-1" points="0.00330450497 0.00209973753 20.9818992 0.00209973753 20.9818992 19.999895 0.00330450497 19.999895"></polygon>
    </defs>
    <g id="Desktop-Dashboard" stroke="none" stroke-width="1" fill="none" fill-rule="evenodd" opacity="0.400000006">
        <g id="0110" transform="translate(-135.000000, -649.000000)">
            <g id="Alérgenos" transform="translate(104.000000, 530.000000)">
                <g id="Gluten" transform="translate(10.000000, 109.000000)">
                    <g id="Group">
                        <g id="gluten" transform="translate(20.983607, 10.000000)">
                            <mask id="mask-2" fill="white">
                                <use xlink:href="#path-1"></use>
                            </mask>
                            <g id="Clip-2"></g>
                            <path d="M20.9818992,5.84409449 L20.0473301,4.95338583 L18.5439456,6.38608924 L15.547751,6.07191601 L19.3646745,2.43391076 L18.4301605,1.54314961 L14.6129616,5.18115486 L14.2833923,2.32519685 L15.7867768,0.892283465 L14.8522077,0.00157480315 L3.44797556,10.8709711 L3.96281743,15.3320735 L0,19.1091864 L0.934569081,19.999895 L4.89760682,16.2228346 L9.57788735,16.7135433 L20.9818992,5.84409449 Z M8.31160105,11.1871916 L7.98203175,8.3311811 L9.93482897,6.47013123 L10.2643983,9.32593176 L8.31160105,11.1871916 Z M11.1989673,10.2168504 L14.1953823,10.5310236 L12.2425851,12.3920735 L9.24639043,12.0781102 L11.1989673,10.2168504 Z M17.3460626,7.52782152 L15.3932654,9.38908136 L12.3970707,9.07490814 L14.3496476,7.21385827 L17.3460626,7.52782152 Z M13.4150785,6.32288714 L11.4622813,8.18419948 L11.132712,5.32818898 L13.0855092,3.46713911 L13.4150785,6.32288714 Z M4.83135149,11.3343832 L6.7839284,9.47312336 L7.1134977,12.3290814 L5.16092079,14.1901837 L4.83135149,11.3343832 Z M6.09548987,15.0811024 L8.04828708,13.2198425 L11.0444817,13.5340157 L9.09190482,15.3950656 L6.09548987,15.0811024 Z" id="Fill-1" fill="#000000" mask="url(#mask-2)"></path>
                        </g>
                    </g>
                </g>
            </g>
        </g>
    </g>
</svg>