<?xml version="1.0" encoding="UTF-8"?>
<svg width="21px" height="20px" viewBox="0 0 21 20" version="1.1" xmlns="http://www.w3.org/2000/svg" xmlns:xlink="http://www.w3.org/1999/xlink">
    <!-- Generator: Sketch 52.4 (67378) - http://www.bohemiancoding.com/sketch -->
    <title>lupin</title>
    <desc>Created with Sketch.</desc>
    <defs>
        <polygon id="path-1" points="0.00324488761 0.00205655527 20.9836066 0.00205655527 20.9836066 19.9485861 0.00324488761 19.9485861"></polygon>
    </defs>
    <g id="Desktop-Dashboard" stroke="none" stroke-width="1" fill="none" fill-rule="evenodd" opacity="0.400000006">
        <g id="0110" transform="translate(-535.000000, -649.000000)">
            <g id="Alérgenos" transform="translate(104.000000, 530.000000)">
                <g id="Altramuces" transform="translate(410.000000, 109.000000)">
                    <g id="Group">
                        <g id="lupin" transform="translate(20.983607, 10.000000)">
                            <mask id="mask-2" fill="white">
                                <use xlink:href="#path-1"></use>
                            </mask>
                            <g id="Clip-2"></g>
                            <path d="M20.9836066,8.28627249 C20.9836066,6.52838046 20.2636742,4.87568123 18.9559845,3.63269923 L17.1624269,1.92760925 C15.8549535,0.684421594 14.116505,0 12.2674058,0 C10.4185229,0 8.68007436,0.684421594 7.37260098,1.92760925 C6.59561264,2.66627249 6.00872064,3.57907455 5.67557884,4.56760925 C5.41701538,5.33460154 5.30950144,6.14997429 5.35703904,6.95634961 C2.29148555,7.63254499 0,10.250437 0,13.3676093 C0,16.9962982 3.10546561,19.9485861 6.92242691,19.9485861 L9.45895555,19.9485861 C12.8616529,19.9485861 15.698604,17.6026221 16.2747338,14.5226221 C17.2801082,14.2002571 18.2003042,13.6582005 18.9559845,12.9396401 C20.2636742,11.6966581 20.9836066,10.0439589 20.9836066,8.28627249 Z M18.0382762,4.50534704 C18.2985702,4.75275064 18.530093,5.02030848 18.7313841,5.30385604 C17.8344431,5.29321337 16.9722765,4.95362468 16.3169714,4.33079692 C15.6781071,3.72329049 15.3196552,2.91393316 15.2959676,2.07341902 C15.6350583,2.28010283 15.9529491,2.52287918 16.2445023,2.80005141 L18.0382762,4.50534704 Z M6.92242691,8.02056555 L9.45895555,8.02056555 C9.82952172,8.02056555 10.1915971,8.05511568 10.542099,8.1203599 C9.8998817,8.71526992 9.03836404,9.05424165 8.11221903,9.05424165 C7.20932905,9.05424165 6.35435525,8.72329049 5.71257056,8.14550129 C6.10233564,8.06395887 6.50708129,8.02056555 6.92242691,8.02056555 Z M9.45895555,18.714653 L6.92242691,18.714653 C3.82117965,18.714653 1.29795504,16.3158869 1.29795504,13.3676093 C1.29795504,11.285964 2.55578165,9.47840617 4.38670948,8.59557841 C5.29257394,9.66179949 6.65688694,10.2881748 8.11221903,10.2881748 C9.60708467,10.2881748 10.9791854,9.64431877 11.882508,8.54293059 C13.7740612,9.40514139 15.0834274,11.2437532 15.0834274,13.3676093 C15.0834274,16.3158869 12.5604191,18.714653 9.45895555,18.714653 Z M16.3775968,13.1595373 C16.2616461,9.62683805 13.2028528,6.78663239 9.45895555,6.78663239 L6.92242691,6.78663239 C6.83010985,6.78663239 6.73844178,6.78884319 6.64693595,6.7922365 C6.58122697,5.30164524 7.16303532,3.87172237 8.2905256,2.80005141 C9.35273956,1.79002571 10.7651851,1.23393316 12.2674058,1.23393316 C12.8734967,1.23393316 13.4648234,1.32452442 14.0244043,1.49881748 C13.8706507,2.86272494 14.3693899,4.22416452 15.3992631,5.20323907 C16.3129694,6.07187661 17.5194186,6.53902314 18.7713503,6.53902314 C18.9690722,6.53902314 19.1678756,6.52714653 19.3666791,6.50365039 C19.5762447,7.06858612 19.6856515,7.66930591 19.6856515,8.28606684 C19.6856515,9.71439589 19.1007064,11.0571722 18.0382762,12.0669923 C17.5564103,12.5252956 16.9923407,12.8950643 16.3775968,13.1595373 Z" id="Fill-1" fill="#000000" mask="url(#mask-2)"></path>
                        </g>
                    </g>
                </g>
            </g>
        </g>
    </g>
</svg>