<?xml version="1.0" encoding="UTF-8"?>
<svg width="21px" height="20px" viewBox="0 0 21 20" version="1.1" xmlns="http://www.w3.org/2000/svg" xmlns:xlink="http://www.w3.org/1999/xlink">
    <!-- Generator: Sketch 52.4 (67378) - http://www.bohemiancoding.com/sketch -->
    <title>mollusc</title>
    <desc>Created with Sketch.</desc>
    <defs>
        <polygon id="path-1" points="0 0 20.9836066 0 20.9836066 20 0 20"></polygon>
    </defs>
    <g id="Desktop-Dashboard" stroke="none" stroke-width="1" fill="none" fill-rule="evenodd" opacity="0.400000006">
        <g id="0110" transform="translate(-455.000000, -649.000000)">
            <g id="Alérgenos" transform="translate(104.000000, 530.000000)">
                <g id="Molusco" transform="translate(330.000000, 109.000000)">
                    <g id="Group">
                        <g id="mollusc">
                            <g transform="translate(20.983607, 10.000000)">
                                <mask id="mask-2" fill="white">
                                    <use xlink:href="#path-1"></use>
                                </mask>
                                <g id="Clip-2"></g>
                                <path d="M17.910698,3.39708485 C15.9288829,1.20647599 13.2943045,0 10.4918033,0 C7.68930201,0 5.05472368,1.20647599 3.07290857,3.39708485 C1.09136387,5.58787306 0,8.5003348 0,11.5984312 L0,11.9723312 L6.23267196,16.7867563 L6.23267196,20 L14.7509346,20 L14.7509346,16.7867563 L20.9836066,11.9723312 L20.9836066,11.5984312 C20.9836066,8.5003348 19.8922427,5.58787306 17.910698,3.39708485 Z M11.1407808,15.6954276 L11.1407808,1.46032619 C13.2062058,1.6203128 15.0859692,2.53766501 16.5529288,3.96247848 L11.8736387,15.6954276 L11.1407808,15.6954276 Z M9.10996789,15.6954276 L4.43067771,3.96247848 C5.89763732,2.53766501 7.77740071,1.6203128 9.84282576,1.46032619 L9.84282576,15.6954276 L9.10996789,15.6954276 Z M1.30384992,11.2292544 C1.37994254,8.88846375 2.17569714,6.74741726 3.45299307,5.06779702 L7.69141119,15.6954276 L7.08591516,15.6954276 L1.30384992,11.2292544 Z M7.53062701,18.5651425 L13.4529796,18.5651425 L13.4529796,17.1302851 L7.53062701,17.1302851 L7.53062701,18.5651425 Z M13.8976914,15.6954276 L13.2921954,15.6954276 L17.5306135,5.06779702 C18.8079094,6.74741726 19.603664,8.88846375 19.6797566,11.2292544 L13.8976914,15.6954276 Z" id="Fill-1" fill="#000000" mask="url(#mask-2)"></path>
                            </g>
                        </g>
                    </g>
                </g>
            </g>
        </g>
    </g>
</svg>