<?xml version="1.0" encoding="UTF-8"?>
<svg width="21px" height="25px" viewBox="0 0 21 25" version="1.1" xmlns="http://www.w3.org/2000/svg" xmlns:xlink="http://www.w3.org/1999/xlink">
    <!-- Generator: Sketch 52.4 (67378) - http://www.bohemiancoding.com/sketch -->
    <title>mustard</title>
    <desc>Created with Sketch.</desc>
    <defs>
        <polygon id="path-1" points="0 0.00257731959 20.9271122 0.00257731959 20.9271122 25 0 25"></polygon>
    </defs>
    <g id="Desktop-Dashboard" stroke="none" stroke-width="1" fill="none" fill-rule="evenodd" opacity="0.400000006">
        <g id="0110" transform="translate(-375.000000, -646.000000)">
            <g id="Alérgenos" transform="translate(104.000000, 530.000000)">
                <g id="Mostaza" transform="translate(250.000000, 109.000000)">
                    <g id="Group">
                        <g id="mustard" transform="translate(20.983607, 7.000000)">
                            <g id="Group-3">
                                <mask id="mask-2" fill="white">
                                    <use xlink:href="#path-1"></use>
                                </mask>
                                <g id="Clip-2"></g>
                                <path d="M19.0037871,6.80122423 L19.0037871,4.63917526 L19.5203067,4.63917526 L19.5203067,0 L1.40680555,0 L1.40680555,4.63917526 L1.92332509,4.63917526 L1.92332509,6.80122423 C0.664050441,8.48775773 0,10.4887242 0,12.6054768 C0,13.0137242 0.0256968474,13.4251933 0.0764448928,13.8286727 L1.48099067,25 L19.4461861,25 L20.8506673,13.8286727 C20.9014154,13.4251933 20.9271122,13.0137242 20.9271122,12.6054768 C20.9271122,10.4887242 20.2630618,8.48775773 19.0037871,6.80122423 Z M2.95636419,3.09278351 L17.970748,3.09278351 L17.970748,1.54639175 L2.95636419,1.54639175 L2.95636419,3.09278351 Z M3.30643531,7.54194588 L3.47288373,7.33125 L3.47288373,4.63917526 L17.4542285,4.63917526 L17.4542285,7.33150773 L17.6206769,7.54194588 C18.2763985,8.37229381 18.7553412,9.29845361 19.0461417,10.2861469 L1.88097049,10.2861469 C2.171771,9.29845361 2.65097201,8.37203608 3.30643531,7.54194588 Z M2.84815334,23.4536082 L2.58892509,21.3917526 L18.3381871,21.3917526 L18.0789589,23.4536082 L2.84815334,23.4536082 Z M19.3132469,13.6361469 L18.5323985,19.8453608 L2.39471375,19.8453608 L1.61386532,13.6361469 C1.57125246,13.2963273 1.54955864,12.949549 1.54955864,12.6054768 C1.54955864,12.3454897 1.56189054,12.0877577 1.58565044,11.8322809 L19.3414618,11.8322809 C19.3652217,12.0877577 19.3775536,12.3454897 19.3775536,12.6054768 C19.3775536,12.949549 19.3558598,13.2963273 19.3132469,13.6361469 Z" id="Fill-1" fill="#000000" mask="url(#mask-2)"></path>
                            </g>
                            <path d="M7.5203309,15.6327964 C6.95054527,15.6327964 6.4872918,16.0951675 6.4872918,16.6637242 C6.4872918,17.2320232 6.95054527,17.6946521 7.5203309,17.6946521 C8.08979369,17.6946521 8.55336999,17.2320232 8.55336999,16.6637242 C8.55336999,16.0951675 8.08979369,15.6327964 7.5203309,15.6327964 Z" id="Fill-4" fill="#000000"></path>
                            <path d="M13.0986129,15.6327964 C12.5291501,15.6327964 12.0655738,16.0951675 12.0655738,16.6637242 C12.0655738,17.2320232 12.5291501,17.6946521 13.0986129,17.6946521 C13.6683339,17.6946521 14.131652,17.2320232 14.131652,16.6637242 C14.131652,16.0951675 13.6683339,15.6327964 13.0986129,15.6327964 Z" id="Fill-5" fill="#000000"></path>
                            <path d="M10.3094719,13.9832474 C9.73975082,13.9832474 9.27643279,14.4455541 9.27643279,15.0141753 C9.27643279,15.5824742 9.73975082,16.0451031 10.3094719,16.0451031 C10.8789347,16.0451031 11.342511,15.5824742 11.342511,15.0141753 C11.342511,14.4455541 10.8789347,13.9832474 10.3094719,13.9832474 Z" id="Fill-6" fill="#000000"></path>
                        </g>
                    </g>
                </g>
            </g>
        </g>
    </g>
</svg>