<?xml version="1.0" encoding="UTF-8"?>
<svg width="22px" height="20px" viewBox="0 0 22 20" version="1.1" xmlns="http://www.w3.org/2000/svg" xmlns:xlink="http://www.w3.org/1999/xlink">
    <!-- Generator: Sketch 52.4 (67378) - http://www.bohemiancoding.com/sketch -->
    <title>Fill 1</title>
    <desc>Created with Sketch.</desc>
    <g id="Desktop-Dashboard" stroke="none" stroke-width="1" fill="none" fill-rule="evenodd">
        <g id="0110" transform="translate(-214.000000, -649.000000)" fill="#32BBBC">
            <g id="Alérgenos" transform="translate(104.000000, 530.000000)">
                <g id="Cacahuetes" transform="translate(90.000000, 109.000000)">
                    <g id="Group">
                        <g id="peanuts" transform="translate(20.655738, 10.000000)">
                            <path d="M18.8047068,1.78462725 C17.6131688,0.633830334 16.028746,0 14.3434933,0 C12.6580277,0 11.0738178,0.633830334 9.88201369,1.78462725 C8.72140612,2.90550129 8.31318912,3.85285347 7.95304462,4.68848329 C7.66274632,5.36231362 7.41194947,5.94431877 6.78205594,6.55264781 C6.15232212,7.16077121 5.54968565,7.40298201 4.85202214,7.68354756 C3.98650414,8.03141388 3.00578249,8.42565553 1.84496197,9.54652956 C-0.614934088,11.9224165 -0.614934088,15.788072 1.84496197,18.1639589 C3.0367661,19.3147558 4.62118895,19.9485861 6.30644161,19.9485861 C7.99169427,19.9485861 9.57611712,19.3147558 10.7677083,18.1639589 C11.9284756,17.0428792 12.3366926,16.0955784 12.6968903,15.2598972 C12.9871886,14.5860668 13.2379855,14.0040617 13.867879,13.3957326 C14.4977725,12.7876093 15.100409,12.5453985 15.7979128,12.2650386 C16.6634308,11.9171722 17.6441524,11.5229306 18.8047068,10.4020566 C21.2648158,8.02616967 21.2648158,4.16051414 18.8047068,1.78462725 Z M17.5524261,3.99203085 C17.1400566,4.78812339 16.4637942,5.6840617 15.6230311,6.55326478 C15.3668041,6.24781491 15.0888034,5.94915167 14.7907859,5.66133676 C14.4925553,5.37357326 14.1835711,5.1048329 13.8672402,4.85758355 C14.7673086,4.04565553 15.6949535,3.39228792 16.5193198,2.99424165 C17.4727844,2.53393316 17.8637527,2.62092545 17.9013909,2.65727506 C17.9388161,2.69341902 18.0290519,3.07115681 17.5524261,3.99203085 Z M11.1295564,15.6240103 C11.0933556,15.6260154 11.0563563,15.6269923 11.0182922,15.6269923 C10.4268354,15.6269923 9.62828883,15.3950643 8.7611205,14.914036 C9.45090502,14.194036 9.88574024,13.6405656 10.2796366,13.1390746 C10.6098623,12.7183033 10.9265658,12.3154242 11.3653405,11.8515167 L12.5376069,12.9838046 C12.0279212,13.6013882 11.7689792,14.201491 11.5173838,14.7857069 C11.3992522,15.0598458 11.2794702,15.3372237 11.1295564,15.6240103 Z M6.76246493,13.4146015 C6.45491803,13.1175835 6.18021802,12.8167095 5.93650161,12.5174807 C6.70220128,11.8201542 7.26906287,11.4048329 7.81995352,11.0013882 C8.29487578,10.6535219 8.74930201,10.3203085 9.28539294,9.84293059 L10.4609599,10.9782519 C9.96665962,11.4960411 9.62163427,11.9348586 9.26170272,12.3933676 C8.84369021,12.9255527 8.41385922,13.4728535 7.69160047,14.212545 C7.38155146,13.9771208 7.07006507,13.7116195 6.76246493,13.4146015 Z M9.52016562,4.32478149 C10.1213647,4.29285347 10.9658543,4.52179949 11.8891871,5.03393316 C11.1989767,5.75434447 10.7641415,6.30786632 10.3702983,6.80930591 C10.0400727,7.23007712 9.72336911,7.6329563 9.28454115,8.09706941 L8.11211509,6.96478149 C8.62201369,6.34699229 8.88090248,5.74688946 9.13276407,5.16267352 C9.25089572,4.88874036 9.37046476,4.61136247 9.52016562,4.32478149 Z M10.188975,8.97033419 C10.6832753,8.45254499 11.0282474,8.01352185 11.3884452,7.55501285 C11.8062447,7.02282776 12.2360757,6.47573265 12.9582812,5.73604113 C13.2681173,5.9714653 13.5796569,6.23676093 13.8872038,6.53398458 C14.194804,6.83100257 14.469504,7.13187661 14.7134333,7.4311054 C13.9475207,8.12843188 13.3808721,8.54354756 12.8299814,8.94719794 C12.3552189,9.29485861 11.9006329,9.62827763 11.3643291,10.1056555 L10.188975,8.97033419 Z M14.3434933,1.23393316 C15.0794338,1.23393316 15.7914712,1.38596401 16.4409025,1.67398458 C15.28301,2.12241645 13.9596054,3.05912596 12.8085804,4.12658098 C12.4764382,3.92673522 12.1412084,3.75120823 11.8066174,3.60401028 C11.287988,3.37583548 10.7895352,3.22282776 10.322279,3.14550129 C10.4590967,2.9870437 10.6121514,2.82457584 10.7853828,2.65727506 C11.7359194,1.73943445 12.9994862,1.23393316 14.3434933,1.23393316 Z M5.34296857,8.82272494 C5.94773449,8.57969152 6.56911019,8.32966581 7.20874599,7.83722365 L8.38101234,8.96951157 C7.90060673,9.39326478 7.483446,9.69912596 7.04802518,10.0180977 C6.52854403,10.3984576 5.9551876,10.8184062 5.20945158,11.4849871 C4.67900372,10.5932648 4.44210157,9.77768638 4.47500169,9.19706941 C4.77195454,9.05244216 5.05911188,8.93676093 5.34296857,8.82272494 Z M2.74854403,10.419126 C2.92177539,10.251671 3.09000254,10.1040103 3.25407724,9.97167095 C3.33414484,10.422982 3.49257647,10.9045758 3.72883978,11.4052442 C3.8812557,11.7285861 4.06279196,12.0523393 4.26993493,12.3730591 C3.1654918,13.4837018 2.19642893,14.760617 1.73140865,15.8782519 C0.883831333,14.0851928 1.22257478,11.8926478 2.74854403,10.419126 Z M3.09750887,15.9565553 C3.50966537,15.1604627 4.18614078,14.2645244 5.02669089,13.3953213 C5.28286463,13.7007712 5.56113149,13.9994344 5.85914906,14.2872494 C6.1571134,14.5750129 6.46636387,14.8435476 6.78264154,15.0910026 C5.88262633,15.9029306 4.95492817,16.5562982 4.13061518,16.9543445 C3.17715058,17.414653 2.78596924,17.3275064 2.74854403,17.2913111 C2.71090586,17.2551671 2.6206701,16.8774293 3.09750887,15.9565553 Z M6.30644161,18.714653 C5.57007521,18.714653 4.85782491,18.5626221 4.20796772,18.2744473 C5.36628612,17.825964 6.68969072,16.8896658 7.84092868,15.8217995 C8.17136725,16.0208226 8.50494676,16.1955784 8.83810039,16.342365 C9.35816715,16.5717224 9.85853642,16.7257584 10.327443,16.8032905 C10.1906253,16.9615424 10.0375706,17.1240103 9.86433919,17.2913111 C8.91396231,18.2091517 7.65044871,18.714653 6.30644161,18.714653 Z M15.3071261,11.1257069 C14.7022004,11.3688946 14.0808247,11.6187147 13.4411357,12.1111568 L12.2687097,10.9790746 C12.749062,10.5551157 13.1664357,10.2492545 13.6019098,9.93033419 C14.121178,9.55012853 14.6943214,9.13017995 15.4400042,8.46380463 C15.9702924,9.35552699 16.2073542,10.1713111 16.1745074,10.7515167 C15.8777674,10.896144 15.5907698,11.0116195 15.3071261,11.1257069 Z M17.9013909,9.52946015 C17.7279466,9.69691517 17.5599324,9.84457584 17.3958577,9.97670951 C17.3155772,9.52401028 17.1560808,9.04061697 16.918593,8.53809769 C16.7665498,8.21655527 16.5858653,7.89465296 16.3797871,7.57552699 C17.4842302,6.46488432 18.4532931,5.18796915 18.9182601,4.07033419 C19.7661036,5.86339332 19.4273601,8.0559383 17.9013909,9.52946015 Z" id="Fill-1"></path>
                        </g>
                    </g>
                </g>
            </g>
        </g>
    </g>
</svg>