<?xml version="1.0" encoding="UTF-8"?>
<svg width="21px" height="20px" viewBox="0 0 21 20" version="1.1" xmlns="http://www.w3.org/2000/svg" xmlns:xlink="http://www.w3.org/1999/xlink">
    <!-- Generator: Sketch 52.4 (67378) - http://www.bohemiancoding.com/sketch -->
    <title>sesame</title>
    <desc>Created with Sketch.</desc>
    <defs>
        <polygon id="path-1" points="0.00324488761 0.0127932961 20.9807218 0.0127932961 20.9807218 19.9998883 0.00324488761 19.9998883"></polygon>
    </defs>
    <g id="Desktop-Dashboard" stroke="none" stroke-width="1" fill="none" fill-rule="evenodd" opacity="0.400000006">
        <g id="0110" transform="translate(-295.000000, -649.000000)">
            <g id="Alérgenos" transform="translate(104.000000, 530.000000)">
                <g id="Sésamo" transform="translate(170.000000, 109.000000)">
                    <g id="Group">
                        <g id="sesame" transform="translate(20.983607, 10.000000)">
                            <mask id="mask-2" fill="white">
                                <use xlink:href="#path-1"></use>
                            </mask>
                            <g id="Clip-2"></g>
                            <path d="M10.8426838,9.14424581 L10.4903431,8.90899441 L10.1379483,9.14424581 C7.49514957,10.9090503 6.09811729,13.0941341 6.09811729,15.4629609 C6.09811729,17.9647486 8.06846713,19.9998883 10.4903431,19.9998883 C12.9121649,19.9998883 14.8825689,17.9647486 14.8825689,15.4629609 C14.8825689,13.0939106 13.4854825,10.9090503 10.8426838,9.14424581 Z M10.4903431,18.6591061 C8.78423525,18.6591061 7.39607233,17.2253631 7.39607233,15.4629609 C7.39607233,13.2497207 9.00369782,11.5824581 10.4903431,10.5142458 C11.9767179,11.5824581 13.5846138,13.2497207 13.5846138,15.4629609 C13.5846138,17.2253631 12.1964509,18.6591061 10.4903431,18.6591061 Z" id="Fill-1" fill="#000000" mask="url(#mask-2)"></path>
                            <path d="M20.3931452,2.28189944 C19.6106405,0.882178771 18.1519554,0.0127932961 16.5859185,0.0127932961 C15.8188271,0.0127932961 15.060605,0.223128492 14.3932939,0.621173184 C12.4072604,1.80575419 11.2740916,4.14793296 11.1158492,7.3947486 L11.0949197,7.82748603 L11.468244,8.02497207 C13.0213554,8.84681564 14.497617,9.26363128 15.8560352,9.26363128 L15.8564137,9.26363128 C16.9279297,9.26363128 17.9134021,8.99977654 18.7854656,8.47972067 C20.8828528,7.22888268 21.6040832,4.44865922 20.3931452,2.28189944 Z M18.1363258,7.31854749 C17.4640933,7.7196648 16.6970019,7.92284916 15.8561974,7.92284916 L15.8560352,7.92284916 C14.8128038,7.92284916 13.6655197,7.62100559 12.4406287,7.02502793 C12.5927598,5.16094972 13.1865743,2.88899441 15.0422714,1.78240223 C15.512726,1.50195531 16.0463478,1.35357542 16.5857022,1.35357542 C17.6897211,1.35357542 18.7177015,1.96636872 19.269062,2.95251397 C20.1220889,4.47877095 19.6140477,6.4373743 18.1363258,7.31854749 Z" id="Fill-3" fill="#000000" mask="url(#mask-2)"></path>
                            <path d="M9.88592868,7.82748603 L9.86478283,7.3947486 C9.7067568,4.14793296 8.57337164,1.80575419 6.58739226,0.621173184 C5.92002704,0.223128492 5.16180497,0.0127932961 4.39498394,0.0127932961 C2.82873078,0.0127932961 1.36999155,0.882178771 0.587703228,2.28189944 C-0.623396992,4.44865922 0.0978333615,7.22888268 2.19516647,8.47972067 C3.06723002,8.99977654 4.05291871,9.26363128 5.12465101,9.26363128 C6.48279872,9.26363128 7.95906033,8.84681564 9.51244212,8.02497207 L9.88592868,7.82748603 Z M5.12465101,7.92284916 C4.28363022,7.92284916 3.51637654,7.7196648 2.84414399,7.31854749 C1.3666385,6.4373743 0.858543181,4.47854749 1.71157005,2.9522905 C2.26276829,1.96614525 3.29096502,1.35357542 4.39498394,1.35357542 C4.93428427,1.35357542 5.46812236,1.50173184 5.93841474,1.78240223 C7.7940578,2.88899441 8.38792631,5.16094972 8.54000338,7.02502793 C7.31495014,7.62100559 6.16761197,7.92284916 5.12465101,7.92284916 Z" id="Fill-4" fill="#000000" mask="url(#mask-2)"></path>
                        </g>
                    </g>
                </g>
            </g>
        </g>
    </g>
</svg>