<?xml version="1.0" encoding="UTF-8"?>
<svg width="22px" height="20px" viewBox="0 0 22 20" version="1.1" xmlns="http://www.w3.org/2000/svg" xmlns:xlink="http://www.w3.org/1999/xlink">
    <!-- Generator: Sketch 52.4 (67378) - http://www.bohemiancoding.com/sketch -->
    <title>soybean</title>
    <desc>Created with Sketch.</desc>
    <defs>
        <polygon id="path-1" points="0.00319418624 0.050974359 20.6540998 0.050974359 20.6540998 19.9487692 0.00319418624 19.9487692"></polygon>
    </defs>
    <g id="Desktop-Dashboard" stroke="none" stroke-width="1" fill="none" fill-rule="evenodd">
        <g id="0110" transform="translate(-294.000000, -569.000000)">
            <g id="Alérgenos" transform="translate(104.000000, 530.000000)">
                <g id="Soja" transform="translate(170.000000, 29.000000)">
                    <g id="Group">
                        <g id="soybean" transform="translate(20.655738, 10.000000)">
                            <path d="M14.9080657,3.02292308 C14.1970931,3.02292308 13.5287097,3.28953846 13.0258915,3.77389744 C11.9879939,4.77369231 11.9879939,6.40030769 13.0258915,7.40010256 C13.5287097,7.88430769 14.1970931,8.15112821 14.9080657,8.15112821 C15.6190916,8.15112821 16.2874218,7.88446154 16.7902932,7.40010256 C17.2931114,6.91574359 17.5698876,6.27189744 17.5698876,5.58702564 C17.5698876,4.90210256 17.2931114,4.25810256 16.7902932,3.77389744 C16.2874218,3.28953846 15.6190916,3.02292308 14.9080657,3.02292308 Z M15.8867112,6.52974359 C15.6253203,6.78153846 15.2777928,6.92035897 14.9080657,6.92035897 C14.5383387,6.92035897 14.1908112,6.78153846 13.9294203,6.52974359 C13.3896028,6.00989744 13.3896028,5.16394872 13.9294203,4.64410256 C14.1908112,4.39230769 14.5383387,4.25369231 14.9080657,4.25369231 C15.2777928,4.25369231 15.6253203,4.39230769 15.8867112,4.64410256 C16.148315,4.89610256 16.2922131,5.23082051 16.2922131,5.58702564 C16.2922131,5.94317949 16.148315,6.27789744 15.8867112,6.52974359 Z" id="Fill-1" fill="#32BBBC"></path>
                            <g id="Group-5">
                                <mask id="mask-2" fill="white">
                                    <use xlink:href="#path-1"></use>
                                </mask>
                                <g id="Clip-3"></g>
                                <path d="M10.3270171,7.43574359 C9.61604445,7.43574359 8.94744803,7.70241026 8.44484283,8.18676923 C7.40694524,9.1865641 7.40694524,10.8131795 8.44484283,11.8129744 C8.94766098,12.2971282 9.61604445,12.5639487 10.3270171,12.5639487 C11.0380429,12.5639487 11.7064264,12.2971282 12.2092445,11.8129744 C13.2471421,10.8131795 13.2471421,9.18635897 12.2092445,8.18676923 C11.7064264,7.70241026 11.0380429,7.43574359 10.3270171,7.43574359 Z M11.3058754,10.9425641 C11.0442716,11.194359 10.6967974,11.3331795 10.3270171,11.3331795 C9.95729001,11.3331795 9.60981579,11.194359 9.34842488,10.9425641 C8.80855417,10.4227692 8.80855417,9.57676923 9.34842488,9.05697436 C9.60981579,8.80517949 9.95729001,8.66651282 10.3270171,8.66651282 C10.6967974,8.66651282 11.0444845,8.80517949 11.3058754,9.05697436 C11.8455332,9.57697436 11.8455332,10.4227692 11.3058754,10.9425641 Z" id="Fill-2" fill="#32BBBC" mask="url(#mask-2)"></path>
                                <path d="M19.8020914,1.11887179 L19.7120154,0.959384615 L19.5465033,0.872666667 C18.5217019,0.335025641 17.3602958,0.050974359 16.1873906,0.050974359 C14.3104335,0.050974359 12.5461247,0.755076923 11.2189403,2.03333333 C10.4193823,2.80353846 9.82526365,3.74666667 9.4871058,4.77789744 C8.41657428,5.10364103 7.43750296,5.67594872 6.6379449,6.44620513 C5.83833362,7.21641026 5.24421497,8.15953846 4.90605712,9.19076923 C3.8355256,9.51651282 2.85666723,10.0888205 2.05689623,10.8590256 C0.962834207,11.9131282 0.273688525,13.2488718 0.0642563799,14.7222051 C-0.138308264,16.1471282 0.141395978,17.6240513 0.851995944,18.8808718 L0.94201876,19.040359 L1.10758408,19.1270769 C2.1323855,19.6645128 3.29379162,19.9485641 4.46664357,19.9487692 L4.46706946,19.9487692 C6.34365388,19.9487692 8.1081756,19.2446667 9.4350938,17.9662051 C10.234918,17.196 10.8288237,16.2530769 11.1669816,15.2218462 C12.2375131,14.8958974 13.2165844,14.3237949 14.0161425,13.5535385 C14.8157538,12.7831282 15.4098724,11.8402051 15.747977,10.8089744 C16.8185618,10.4830256 17.7974201,9.91092308 18.5971911,9.14071795 C19.6914661,8.08661538 20.3803989,6.75066667 20.589831,5.27753846 C20.7923424,3.85261538 20.5126382,2.37569231 19.8020914,1.11887179 Z M17.6936091,8.27030769 C16.9672511,8.97 16.0607943,9.46984615 15.0719275,9.71579487 L14.7074176,9.8065641 L14.6131891,10.1579487 C14.3578139,11.1102564 13.8389716,11.9834359 13.1126137,12.6831795 C12.3862025,13.3828718 11.4797456,13.8828718 10.4908788,14.1286667 L10.1263689,14.2194359 L10.0321404,14.5705641 C9.77676525,15.5231282 9.25792293,16.3963077 8.53156498,17.096 C7.44580784,18.1421026 6.00219537,18.718 4.46664357,18.718 C3.57014196,18.718 2.68221142,18.5154872 1.88616698,18.1306667 C0.785663343,16.0181026 1.2148555,13.4107179 2.9602121,11.7294359 C3.68683623,11.0297436 4.59329305,10.5297436 5.58194693,10.2839487 L5.94666977,10.1931795 L6.04089826,9.84179487 C6.2960605,8.88948718 6.81511577,8.01630769 7.54147372,7.31635897 C8.26767196,6.61666667 9.17434173,6.11687179 10.1629424,5.87107692 L10.5277184,5.78030769 L10.6218937,5.42897436 C10.8772689,4.47661538 11.3961112,3.6034359 12.1223094,2.90369231 C13.2082263,1.85764103 14.651892,1.28174359 16.1873906,1.28174359 C17.0838922,1.28174359 17.971876,1.48425641 18.7677075,1.86907692 C19.868424,3.9814359 19.4391786,6.58902564 17.6936091,8.27030769 Z" id="Fill-4" fill="#32BBBC" mask="url(#mask-2)"></path>
                            </g>
                            <path d="M5.74602163,11.8486154 C5.03499577,11.8486154 4.3666123,12.1152308 3.86379415,12.599641 C3.360976,13.084 3.08419976,13.7278462 3.08419976,14.4127179 C3.08419976,15.097641 3.360976,15.7414359 3.86379415,16.2258462 C4.3666123,16.71 5.03499577,16.9768205 5.74602163,16.9768205 C6.45699425,16.9768205 7.12537773,16.7102051 7.62819588,16.2258462 C8.66609346,15.2260513 8.66609346,13.5994359 7.62819588,12.599641 C7.12537773,12.1152308 6.45699425,11.8486154 5.74602163,11.8486154 Z M6.72482677,15.3554359 C6.46322292,15.6072308 6.11574869,15.7460513 5.74602163,15.7460513 C5.37624134,15.7460513 5.02876711,15.6072308 4.7673762,15.3554359 C4.50577235,15.103641 4.36187426,14.7689231 4.36187426,14.4127179 C4.36187426,14.0565641 4.50577235,13.7218462 4.7673762,13.4698462 C5.02876711,13.218 5.37624134,13.0793846 5.74602163,13.0793846 C6.11574869,13.0793846 6.46322292,13.218 6.72482677,13.4698462 C7.26448454,13.989641 7.26448454,14.8355897 6.72482677,15.3554359 Z" id="Fill-6" fill="#32BBBC"></path>
                        </g>
                    </g>
                </g>
            </g>
        </g>
    </g>
</svg>