<?xml version="1.0" encoding="UTF-8"?>
<svg width="22px" height="20px" viewBox="0 0 22 20" version="1.1" xmlns="http://www.w3.org/2000/svg" xmlns:xlink="http://www.w3.org/1999/xlink">
    <!-- Generator: Sketch 52.4 (67378) - http://www.bohemiancoding.com/sketch -->
    <title>sulfide</title>
    <desc>Created with Sketch.</desc>
    <defs>
        <polygon id="path-1" points="0 0.00205655527 20.6001261 0.00205655527 20.6001261 19.9485861 0 19.9485861"></polygon>
    </defs>
    <g id="Desktop-Dashboard" stroke="none" stroke-width="1" fill="none" fill-rule="evenodd">
        <g id="0110" transform="translate(-374.000000, -569.000000)">
            <g id="Alérgenos" transform="translate(104.000000, 530.000000)">
                <g id="Sulfatos" transform="translate(250.000000, 29.000000)">
                    <g id="Group">
                        <g id="sulfide" transform="translate(20.655738, 10.000000)">
                            <mask id="mask-2" fill="white">
                                <use xlink:href="#path-1"></use>
                            </mask>
                            <g id="Clip-2"></g>
                            <path d="M20.1980013,15.2558869 L14.928802,6.56128535 L14.928802,0 L5.67105927,0 L5.67105927,6.56128535 L0.402124842,15.2558869 C0.135255359,15.6960925 0,16.167455 0,16.6565039 C0,18.4718252 1.90158575,19.9485861 4.23912673,19.9485861 L16.3609994,19.9485861 C18.6983417,19.9485861 20.6001261,18.4718252 20.6001261,16.6565039 C20.6001261,16.1672494 20.4646059,15.6960925 20.1980013,15.2558869 Z M7.25996217,6.83722365 L7.25996217,1.23393316 L13.3398991,1.23393316 L13.3398991,6.83722365 L16.7220113,12.4182519 L3.87784994,12.4182519 L7.25996217,6.83722365 Z M16.3609994,18.714653 L4.23912673,18.714653 C2.77773329,18.714653 1.5889029,17.7914139 1.5889029,16.6565039 C1.5889029,16.350437 1.67318096,16.0559897 1.83975095,15.7814396 L3.13020492,13.6521851 L17.4699212,13.6521851 L18.7601103,15.7814396 C18.9266803,16.0559897 19.0112232,16.350437 19.0112232,16.6565039 C19.0112232,17.7914139 17.822128,18.714653 16.3609994,18.714653 Z" id="Fill-1" fill="#32BBBC" mask="url(#mask-2)"></path>
                        </g>
                    </g>
                </g>
            </g>
        </g>
    </g>
</svg>